<svg width="64" height="64" viewBox="0 0 64 64" fill="none" xmlns="http://www.w3.org/2000/svg">
  <!-- Background Circle -->
  <circle cx="32" cy="32" r="32" fill="url(#gradient)" />
  
  <!-- Code Brackets -->
  <path d="M24 16L16 32L24 48" stroke="white" stroke-width="3" stroke-linecap="round" stroke-linejoin="round" />
  <path d="M40 16L48 32L40 48" stroke="white" stroke-width="3" stroke-linecap="round" stroke-linejoin="round" />
  
  <!-- AI Brain Symbol -->
  <circle cx="32" cy="32" r="8" fill="white" opacity="0.9" />
  <path d="M28 28L36 36M36 28L28 36" stroke="#6366F1" stroke-width="2.5" stroke-linecap="round" />
  
  <!-- Code Lines -->
  <rect x="20" y="20" width="4" height="4" fill="white" opacity="0.7" />
  <rect x="28" y="20" width="4" height="4" fill="white" opacity="0.7" />
  <rect x="36" y="20" width="4" height="4" fill="white" opacity="0.7" />
  <rect x="20" y="44" width="4" height="4" fill="white" opacity="0.7" />
  <rect x="28" y="44" width="4" height="4" fill="white" opacity="0.7" />
  <rect x="36" y="44" width="4" height="4" fill="white" opacity="0.7" />
  
  <!-- Additional Code Elements -->
  <rect x="24" y="32" width="2" height="2" fill="white" opacity="0.5" />
  <rect x="30" y="32" width="2" height="2" fill="white" opacity="0.5" />
  <rect x="36" y="32" width="2" height="2" fill="white" opacity="0.5" />
  
  <!-- Gradient Definition -->
  <defs>
    <linearGradient id="gradient" x1="0%" y1="0%" x2="100%" y2="100%">
      <stop offset="0%" style="stop-color:#6366F1;stop-opacity:1" />
      <stop offset="50%" style="stop-color:#7C3AED;stop-opacity:1" />
      <stop offset="100%" style="stop-color:#8B5CF6;stop-opacity:1" />
    </linearGradient>
  </defs>
</svg> 